<svg xmlns="http://www.w3.org/2000/svg" viewBox="0 0 10.69 9.19"><defs><style>.cls-1{fill:#444;}</style></defs><title>Recurso 6</title><g id="Capa_2" data-name="Capa 2"><g id="Header"><path class="cls-1" d="M10.67,5.2h0L8.65.13A.21.21,0,0,0,8.38,0h0L.2,3.27a.22.22,0,0,0-.09.07A.21.21,0,0,0,0,3.52V9a.21.21,0,0,0,.21.21H9A.21.21,0,0,0,9.23,9V6l1.32-.53A.21.21,0,0,0,10.67,5.2ZM8.81,8.77H.42v-5H8.81ZM3.5,3.31,7,1.91a1.68,1.68,0,0,0,1.21.52l.35.88ZM9.23,5.55v-2A.21.21,0,0,0,9,3.31H9L8.57,2.2s0,0,0,0A.21.21,0,0,0,8.34,2a1.25,1.25,0,0,1-1.1-.47A.19.19,0,0,0,7,1.49h0L2.65,3.2a.25.25,0,0,0-.12.11H1.23L8.34.48,10.2,5.16Z"/><path class="cls-1" d="M1,7.35a1.27,1.27,0,0,1,.85.85.2.2,0,0,0,.2.15H7.16a.19.19,0,0,0,.23-.14h0a1.27,1.27,0,0,1,.85-.85.22.22,0,0,0,.15-.23V5.38a.22.22,0,0,0-.15-.23,1.27,1.27,0,0,1-.85-.85.19.19,0,0,0-.23-.14H2.07a.19.19,0,0,0-.23.14A1.25,1.25,0,0,1,1,5.15a.2.2,0,0,0-.14.23,0,0,0,0,0,0,0V7.09a0,0,0,0,0,0,0A.2.2,0,0,0,1,7.35ZM1.26,5.5a1.68,1.68,0,0,0,.92-.93H7.05A1.68,1.68,0,0,0,8,5.5V7a1.68,1.68,0,0,0-.92.93H2.18A1.68,1.68,0,0,0,1.26,7Z"/><path class="cls-1" d="M4.62,7.51A1.26,1.26,0,1,0,3.36,6.25,1.25,1.25,0,0,0,4.62,7.51Zm0-2.1a.84.84,0,1,1-.84.84A.84.84,0,0,1,4.62,5.41Z"/><path class="cls-1" d="M2.31,6.57a.32.32,0,0,0,.31-.32.32.32,0,0,0-.63,0A.32.32,0,0,0,2.31,6.57Zm0-.42a.09.09,0,0,1,.1.1.1.1,0,0,1-.1.11.11.11,0,0,1-.11-.11A.1.1,0,0,1,2.31,6.15Z"/><path class="cls-1" d="M6.92,6.57a.32.32,0,0,0,.32-.32.32.32,0,0,0-.63,0A.32.32,0,0,0,6.92,6.57Zm0-.42a.1.1,0,0,1,.11.1.11.11,0,0,1-.11.11.11.11,0,0,1-.1-.11A.1.1,0,0,1,6.92,6.15Z"/></g></g></svg>