<svg xmlns="http://www.w3.org/2000/svg" viewBox="0 0 9.56 7.8"><defs><style>.cls-1{fill:#444;}</style></defs><title>Recurso 5</title><g id="Capa_2" data-name="Capa 2"><g id="Header"><path class="cls-1" d="M5.09,5.41H7.64a.15.15,0,0,0,.16-.16V3.82a.15.15,0,0,0-.16-.16H5.09a.15.15,0,0,0-.15.16V5.25A.14.14,0,0,0,5.09,5.41ZM5.25,4H7.48V5.09H5.25Z"/><path class="cls-1" d="M.8,3.34H2.07a.15.15,0,0,0,.16-.16A.15.15,0,0,0,2.07,3H.8a.15.15,0,0,0-.16.16A.15.15,0,0,0,.8,3.34Z"/><path class="cls-1" d="M2.71,3.34H4a.15.15,0,0,0,.16-.16A.15.15,0,0,0,4,3H2.71a.15.15,0,0,0-.16.16A.15.15,0,0,0,2.71,3.34Z"/><path class="cls-1" d="M.8,4H2.87A.14.14,0,0,0,3,3.82a.15.15,0,0,0-.15-.16H.8a.15.15,0,0,0-.16.16A.15.15,0,0,0,.8,4Z"/><path class="cls-1" d="M4,3.66H3.5a.16.16,0,0,0-.16.16A.15.15,0,0,0,3.5,4H4a.15.15,0,0,0,.16-.16A.15.15,0,0,0,4,3.66Z"/><path class="cls-1" d="M9.41,1.69A.56.56,0,0,0,9,1.45L8.6,1.4V.64A.64.64,0,0,0,8,0H.64A.64.64,0,0,0,0,.64V5.73a.63.63,0,0,0,.46.61A.61.61,0,0,0,1,7l7.35.83h.07a.63.63,0,0,0,.63-.54l.48-5.11A.59.59,0,0,0,9.41,1.69ZM.32,1.11h8v1h-8ZM.64.32H8a.32.32,0,0,1,.32.32V.8h-8V.64A.32.32,0,0,1,.64.32ZM.32,5.73V2.39h8V5.73A.32.32,0,0,1,8,6.05H.64A.32.32,0,0,1,.32,5.73ZM9.23,2.09,8.76,7.2a.32.32,0,0,1-.35.28L1.07,6.65a.32.32,0,0,1-.29-.28H8a.64.64,0,0,0,.64-.64v-4l.36,0a.26.26,0,0,1,.21.11A.29.29,0,0,1,9.23,2.09Z"/></g></g></svg>